<mxfile host="65bd71144e">
    <diagram id="0mtorhF8wzX9WZ9EA87X" name="Page-1">
        <mxGraphModel dx="1855" dy="1136" grid="1" gridSize="10" guides="1" tooltips="1" connect="1" arrows="1" fold="1" page="1" pageScale="1" pageWidth="827" pageHeight="1169" math="0" shadow="0">
            <root>
                <mxCell id="0"/>
                <mxCell id="1" parent="0"/>
                <mxCell id="2" value="" style="endArrow=none;html=1;strokeWidth=3;" edge="1" parent="1">
                    <mxGeometry width="50" height="50" relative="1" as="geometry">
                        <mxPoint x="80" y="80" as="sourcePoint"/>
                        <mxPoint x="280" y="80" as="targetPoint"/>
                    </mxGeometry>
                </mxCell>
                <mxCell id="3" value="" style="endArrow=none;html=1;strokeWidth=3;" edge="1" parent="1">
                    <mxGeometry width="50" height="50" relative="1" as="geometry">
                        <mxPoint x="280" y="70" as="sourcePoint"/>
                        <mxPoint x="440" y="70" as="targetPoint"/>
                    </mxGeometry>
                </mxCell>
                <mxCell id="4" value="" style="endArrow=none;html=1;strokeWidth=3;" edge="1" parent="1">
                    <mxGeometry width="50" height="50" relative="1" as="geometry">
                        <mxPoint x="440" y="80" as="sourcePoint"/>
                        <mxPoint x="600" y="80" as="targetPoint"/>
                    </mxGeometry>
                </mxCell>
                <mxCell id="6" value="" style="endArrow=none;html=1;strokeWidth=3;" edge="1" parent="1">
                    <mxGeometry width="50" height="50" relative="1" as="geometry">
                        <mxPoint x="600" y="70" as="sourcePoint"/>
                        <mxPoint x="760" y="70" as="targetPoint"/>
                    </mxGeometry>
                </mxCell>
                <mxCell id="7" value="" style="endArrow=none;html=1;strokeWidth=3;" edge="1" parent="1">
                    <mxGeometry width="50" height="50" relative="1" as="geometry">
                        <mxPoint x="760" y="80" as="sourcePoint"/>
                        <mxPoint x="920" y="80" as="targetPoint"/>
                    </mxGeometry>
                </mxCell>
                <mxCell id="8" value="" style="endArrow=none;html=1;strokeWidth=3;" edge="1" parent="1">
                    <mxGeometry width="50" height="50" relative="1" as="geometry">
                        <mxPoint x="80" y="80" as="sourcePoint"/>
                        <mxPoint x="80" y="280" as="targetPoint"/>
                    </mxGeometry>
                </mxCell>
                <mxCell id="9" value="" style="endArrow=none;html=1;strokeWidth=3;" edge="1" parent="1">
                    <mxGeometry width="50" height="50" relative="1" as="geometry">
                        <mxPoint x="70" y="280" as="sourcePoint"/>
                        <mxPoint x="70" y="440" as="targetPoint"/>
                    </mxGeometry>
                </mxCell>
                <mxCell id="10" value="" style="endArrow=none;html=1;strokeWidth=3;" edge="1" parent="1">
                    <mxGeometry width="50" height="50" relative="1" as="geometry">
                        <mxPoint x="80" y="440" as="sourcePoint"/>
                        <mxPoint x="80" y="600" as="targetPoint"/>
                    </mxGeometry>
                </mxCell>
                <mxCell id="11" value="" style="endArrow=none;html=1;strokeWidth=3;" edge="1" parent="1">
                    <mxGeometry width="50" height="50" relative="1" as="geometry">
                        <mxPoint x="70" y="600" as="sourcePoint"/>
                        <mxPoint x="70" y="760" as="targetPoint"/>
                    </mxGeometry>
                </mxCell>
                <mxCell id="12" value="" style="endArrow=none;html=1;strokeWidth=3;" edge="1" parent="1">
                    <mxGeometry width="50" height="50" relative="1" as="geometry">
                        <mxPoint x="80" y="760" as="sourcePoint"/>
                        <mxPoint x="80" y="920" as="targetPoint"/>
                    </mxGeometry>
                </mxCell>
                <mxCell id="13" value="" style="endArrow=none;html=1;strokeWidth=1;" edge="1" parent="1">
                    <mxGeometry width="50" height="50" relative="1" as="geometry">
                        <mxPoint x="80" y="280" as="sourcePoint"/>
                        <mxPoint x="920" y="280" as="targetPoint"/>
                    </mxGeometry>
                </mxCell>
                <mxCell id="14" value="" style="endArrow=none;html=1;strokeWidth=1;" edge="1" parent="1">
                    <mxGeometry width="50" height="50" relative="1" as="geometry">
                        <mxPoint x="80" y="440" as="sourcePoint"/>
                        <mxPoint x="920" y="440" as="targetPoint"/>
                    </mxGeometry>
                </mxCell>
                <mxCell id="15" value="" style="endArrow=none;html=1;strokeWidth=1;" edge="1" parent="1">
                    <mxGeometry width="50" height="50" relative="1" as="geometry">
                        <mxPoint x="80" y="600" as="sourcePoint"/>
                        <mxPoint x="920" y="600" as="targetPoint"/>
                    </mxGeometry>
                </mxCell>
                <mxCell id="16" value="" style="endArrow=none;html=1;strokeWidth=1;" edge="1" parent="1">
                    <mxGeometry width="50" height="50" relative="1" as="geometry">
                        <mxPoint x="80" y="760" as="sourcePoint"/>
                        <mxPoint x="920" y="760" as="targetPoint"/>
                    </mxGeometry>
                </mxCell>
                <mxCell id="17" value="" style="endArrow=none;html=1;strokeWidth=1;" edge="1" parent="1">
                    <mxGeometry width="50" height="50" relative="1" as="geometry">
                        <mxPoint x="80" y="920" as="sourcePoint"/>
                        <mxPoint x="920" y="920" as="targetPoint"/>
                    </mxGeometry>
                </mxCell>
                <mxCell id="18" value="" style="endArrow=none;html=1;strokeWidth=1;" edge="1" parent="1">
                    <mxGeometry width="50" height="50" relative="1" as="geometry">
                        <mxPoint x="920" y="80" as="sourcePoint"/>
                        <mxPoint x="920" y="920" as="targetPoint"/>
                    </mxGeometry>
                </mxCell>
                <mxCell id="19" value="" style="endArrow=none;html=1;strokeWidth=1;" edge="1" parent="1">
                    <mxGeometry width="50" height="50" relative="1" as="geometry">
                        <mxPoint x="760" y="80" as="sourcePoint"/>
                        <mxPoint x="760" y="920" as="targetPoint"/>
                    </mxGeometry>
                </mxCell>
                <mxCell id="20" value="" style="endArrow=none;html=1;strokeWidth=1;" edge="1" parent="1">
                    <mxGeometry width="50" height="50" relative="1" as="geometry">
                        <mxPoint x="600" y="80" as="sourcePoint"/>
                        <mxPoint x="600" y="920" as="targetPoint"/>
                    </mxGeometry>
                </mxCell>
                <mxCell id="21" value="" style="endArrow=none;html=1;strokeWidth=1;" edge="1" parent="1">
                    <mxGeometry width="50" height="50" relative="1" as="geometry">
                        <mxPoint x="440" y="80" as="sourcePoint"/>
                        <mxPoint x="440" y="920" as="targetPoint"/>
                    </mxGeometry>
                </mxCell>
                <mxCell id="22" value="" style="endArrow=none;html=1;strokeWidth=1;" edge="1" parent="1">
                    <mxGeometry width="50" height="50" relative="1" as="geometry">
                        <mxPoint x="280" y="80" as="sourcePoint"/>
                        <mxPoint x="280" y="920" as="targetPoint"/>
                    </mxGeometry>
                </mxCell>
                <mxCell id="25" value="" style="ellipse;whiteSpace=wrap;html=1;fillColor=#3333FF;strokeColor=none;" vertex="1" parent="1">
                    <mxGeometry x="90" y="90" width="20" height="20" as="geometry"/>
                </mxCell>
                <mxCell id="26" value="" style="ellipse;whiteSpace=wrap;html=1;fillColor=#3333FF;strokeColor=none;" vertex="1" parent="1">
                    <mxGeometry x="90" y="130" width="20" height="20" as="geometry"/>
                </mxCell>
                <mxCell id="27" value="" style="ellipse;whiteSpace=wrap;html=1;fillColor=#3333FF;strokeColor=none;" vertex="1" parent="1">
                    <mxGeometry x="90" y="170" width="20" height="20" as="geometry"/>
                </mxCell>
                <mxCell id="28" value="" style="ellipse;whiteSpace=wrap;html=1;fillColor=#3333FF;strokeColor=none;" vertex="1" parent="1">
                    <mxGeometry x="90" y="210" width="20" height="20" as="geometry"/>
                </mxCell>
                <mxCell id="29" value="" style="ellipse;whiteSpace=wrap;html=1;fillColor=#3333FF;strokeColor=none;" vertex="1" parent="1">
                    <mxGeometry x="90" y="250" width="20" height="20" as="geometry"/>
                </mxCell>
                <mxCell id="30" value="" style="ellipse;whiteSpace=wrap;html=1;fillColor=#3333FF;strokeColor=none;" vertex="1" parent="1">
                    <mxGeometry x="130" y="290" width="20" height="20" as="geometry"/>
                </mxCell>
                <mxCell id="31" value="" style="ellipse;whiteSpace=wrap;html=1;fillColor=#3333FF;strokeColor=none;" vertex="1" parent="1">
                    <mxGeometry x="130" y="330" width="20" height="20" as="geometry"/>
                </mxCell>
                <mxCell id="32" value="" style="ellipse;whiteSpace=wrap;html=1;fillColor=#3333FF;strokeColor=none;" vertex="1" parent="1">
                    <mxGeometry x="130" y="370" width="20" height="20" as="geometry"/>
                </mxCell>
                <mxCell id="33" value="" style="ellipse;whiteSpace=wrap;html=1;fillColor=#3333FF;strokeColor=none;" vertex="1" parent="1">
                    <mxGeometry x="130" y="410" width="20" height="20" as="geometry"/>
                </mxCell>
                <mxCell id="34" value="" style="ellipse;whiteSpace=wrap;html=1;fillColor=#3333FF;strokeColor=none;" vertex="1" parent="1">
                    <mxGeometry x="170" y="450" width="20" height="20" as="geometry"/>
                </mxCell>
                <mxCell id="35" value="" style="ellipse;whiteSpace=wrap;html=1;fillColor=#3333FF;strokeColor=none;" vertex="1" parent="1">
                    <mxGeometry x="170" y="490" width="20" height="20" as="geometry"/>
                </mxCell>
                <mxCell id="36" value="" style="ellipse;whiteSpace=wrap;html=1;fillColor=#3333FF;strokeColor=none;" vertex="1" parent="1">
                    <mxGeometry x="170" y="530" width="20" height="20" as="geometry"/>
                </mxCell>
                <mxCell id="37" value="" style="ellipse;whiteSpace=wrap;html=1;fillColor=#3333FF;strokeColor=none;" vertex="1" parent="1">
                    <mxGeometry x="170" y="570" width="20" height="20" as="geometry"/>
                </mxCell>
                <mxCell id="38" value="" style="ellipse;whiteSpace=wrap;html=1;fillColor=#3333FF;strokeColor=none;" vertex="1" parent="1">
                    <mxGeometry x="210" y="610" width="20" height="20" as="geometry"/>
                </mxCell>
                <mxCell id="39" value="" style="ellipse;whiteSpace=wrap;html=1;fillColor=#3333FF;strokeColor=none;" vertex="1" parent="1">
                    <mxGeometry x="210" y="650" width="20" height="20" as="geometry"/>
                </mxCell>
                <mxCell id="40" value="" style="ellipse;whiteSpace=wrap;html=1;fillColor=#3333FF;strokeColor=none;" vertex="1" parent="1">
                    <mxGeometry x="210" y="690" width="20" height="20" as="geometry"/>
                </mxCell>
                <mxCell id="41" value="" style="ellipse;whiteSpace=wrap;html=1;fillColor=#3333FF;strokeColor=none;" vertex="1" parent="1">
                    <mxGeometry x="210" y="730" width="20" height="20" as="geometry"/>
                </mxCell>
                <mxCell id="42" value="" style="ellipse;whiteSpace=wrap;html=1;fillColor=#3333FF;strokeColor=none;" vertex="1" parent="1">
                    <mxGeometry x="250" y="770" width="20" height="20" as="geometry"/>
                </mxCell>
                <mxCell id="43" value="" style="ellipse;whiteSpace=wrap;html=1;fillColor=#3333FF;strokeColor=none;" vertex="1" parent="1">
                    <mxGeometry x="250" y="810" width="20" height="20" as="geometry"/>
                </mxCell>
                <mxCell id="44" value="" style="ellipse;whiteSpace=wrap;html=1;fillColor=#3333FF;strokeColor=none;" vertex="1" parent="1">
                    <mxGeometry x="250" y="850" width="20" height="20" as="geometry"/>
                </mxCell>
                <mxCell id="45" value="" style="ellipse;whiteSpace=wrap;html=1;fillColor=#3333FF;strokeColor=none;" vertex="1" parent="1">
                    <mxGeometry x="250" y="890" width="20" height="20" as="geometry"/>
                </mxCell>
                <mxCell id="46" value="" style="ellipse;whiteSpace=wrap;html=1;fillColor=#3333FF;strokeColor=none;" vertex="1" parent="1">
                    <mxGeometry x="130" y="89" width="20" height="20" as="geometry"/>
                </mxCell>
                <mxCell id="47" value="" style="ellipse;whiteSpace=wrap;html=1;fillColor=#3333FF;strokeColor=none;" vertex="1" parent="1">
                    <mxGeometry x="170" y="89" width="20" height="20" as="geometry"/>
                </mxCell>
                <mxCell id="48" value="" style="ellipse;whiteSpace=wrap;html=1;fillColor=#3333FF;strokeColor=none;" vertex="1" parent="1">
                    <mxGeometry x="210" y="89" width="20" height="20" as="geometry"/>
                </mxCell>
                <mxCell id="49" value="" style="ellipse;whiteSpace=wrap;html=1;fillColor=#3333FF;strokeColor=none;" vertex="1" parent="1">
                    <mxGeometry x="250" y="89" width="20" height="20" as="geometry"/>
                </mxCell>
                <mxCell id="50" value="" style="ellipse;whiteSpace=wrap;html=1;fillColor=#3333FF;strokeColor=none;" vertex="1" parent="1">
                    <mxGeometry x="290" y="129" width="20" height="20" as="geometry"/>
                </mxCell>
                <mxCell id="51" value="" style="ellipse;whiteSpace=wrap;html=1;fillColor=#3333FF;strokeColor=none;" vertex="1" parent="1">
                    <mxGeometry x="330" y="129" width="20" height="20" as="geometry"/>
                </mxCell>
                <mxCell id="52" value="" style="ellipse;whiteSpace=wrap;html=1;fillColor=#3333FF;strokeColor=none;" vertex="1" parent="1">
                    <mxGeometry x="370" y="129" width="20" height="20" as="geometry"/>
                </mxCell>
                <mxCell id="53" value="" style="ellipse;whiteSpace=wrap;html=1;fillColor=#3333FF;strokeColor=none;" vertex="1" parent="1">
                    <mxGeometry x="410" y="129" width="20" height="20" as="geometry"/>
                </mxCell>
                <mxCell id="54" value="" style="ellipse;whiteSpace=wrap;html=1;fillColor=#3333FF;strokeColor=none;" vertex="1" parent="1">
                    <mxGeometry x="450" y="169" width="20" height="20" as="geometry"/>
                </mxCell>
                <mxCell id="55" value="" style="ellipse;whiteSpace=wrap;html=1;fillColor=#3333FF;strokeColor=none;" vertex="1" parent="1">
                    <mxGeometry x="490" y="169" width="20" height="20" as="geometry"/>
                </mxCell>
                <mxCell id="56" value="" style="ellipse;whiteSpace=wrap;html=1;fillColor=#3333FF;strokeColor=none;" vertex="1" parent="1">
                    <mxGeometry x="530" y="169" width="20" height="20" as="geometry"/>
                </mxCell>
                <mxCell id="57" value="" style="ellipse;whiteSpace=wrap;html=1;fillColor=#3333FF;strokeColor=none;" vertex="1" parent="1">
                    <mxGeometry x="570" y="169" width="20" height="20" as="geometry"/>
                </mxCell>
                <mxCell id="58" value="" style="ellipse;whiteSpace=wrap;html=1;fillColor=#3333FF;strokeColor=none;" vertex="1" parent="1">
                    <mxGeometry x="610" y="209" width="20" height="20" as="geometry"/>
                </mxCell>
                <mxCell id="59" value="" style="ellipse;whiteSpace=wrap;html=1;fillColor=#3333FF;strokeColor=none;" vertex="1" parent="1">
                    <mxGeometry x="650" y="209" width="20" height="20" as="geometry"/>
                </mxCell>
                <mxCell id="60" value="" style="ellipse;whiteSpace=wrap;html=1;fillColor=#3333FF;strokeColor=none;" vertex="1" parent="1">
                    <mxGeometry x="690" y="209" width="20" height="20" as="geometry"/>
                </mxCell>
                <mxCell id="61" value="" style="ellipse;whiteSpace=wrap;html=1;fillColor=#3333FF;strokeColor=none;" vertex="1" parent="1">
                    <mxGeometry x="730" y="209" width="20" height="20" as="geometry"/>
                </mxCell>
                <mxCell id="62" value="" style="ellipse;whiteSpace=wrap;html=1;fillColor=#3333FF;strokeColor=none;" vertex="1" parent="1">
                    <mxGeometry x="770" y="249" width="20" height="20" as="geometry"/>
                </mxCell>
                <mxCell id="63" value="" style="ellipse;whiteSpace=wrap;html=1;fillColor=#3333FF;strokeColor=none;" vertex="1" parent="1">
                    <mxGeometry x="810" y="249" width="20" height="20" as="geometry"/>
                </mxCell>
                <mxCell id="64" value="" style="ellipse;whiteSpace=wrap;html=1;fillColor=#3333FF;strokeColor=none;" vertex="1" parent="1">
                    <mxGeometry x="850" y="249" width="20" height="20" as="geometry"/>
                </mxCell>
                <mxCell id="65" value="" style="ellipse;whiteSpace=wrap;html=1;fillColor=#3333FF;strokeColor=none;" vertex="1" parent="1">
                    <mxGeometry x="890" y="249" width="20" height="20" as="geometry"/>
                </mxCell>
                <mxCell id="66" value="" style="ellipse;whiteSpace=wrap;html=1;fillColor=#006600;strokeColor=none;" vertex="1" parent="1">
                    <mxGeometry x="290" y="289" width="20" height="20" as="geometry"/>
                </mxCell>
                <mxCell id="67" value="" style="ellipse;whiteSpace=wrap;html=1;fillColor=#006600;strokeColor=none;" vertex="1" parent="1">
                    <mxGeometry x="330" y="329" width="20" height="20" as="geometry"/>
                </mxCell>
                <mxCell id="68" value="" style="ellipse;whiteSpace=wrap;html=1;fillColor=#006600;strokeColor=none;" vertex="1" parent="1">
                    <mxGeometry x="370" y="369" width="20" height="20" as="geometry"/>
                </mxCell>
                <mxCell id="69" value="" style="ellipse;whiteSpace=wrap;html=1;fillColor=#006600;strokeColor=none;" vertex="1" parent="1">
                    <mxGeometry x="410" y="409" width="20" height="20" as="geometry"/>
                </mxCell>
                <mxCell id="70" value="" style="ellipse;whiteSpace=wrap;html=1;fillColor=#006600;strokeColor=none;" vertex="1" parent="1">
                    <mxGeometry x="290" y="449" width="20" height="20" as="geometry"/>
                </mxCell>
                <mxCell id="71" value="" style="ellipse;whiteSpace=wrap;html=1;fillColor=#006600;strokeColor=none;" vertex="1" parent="1">
                    <mxGeometry x="330" y="489" width="20" height="20" as="geometry"/>
                </mxCell>
                <mxCell id="72" value="" style="ellipse;whiteSpace=wrap;html=1;fillColor=#006600;strokeColor=none;" vertex="1" parent="1">
                    <mxGeometry x="370" y="529" width="20" height="20" as="geometry"/>
                </mxCell>
                <mxCell id="73" value="" style="ellipse;whiteSpace=wrap;html=1;fillColor=#006600;strokeColor=none;" vertex="1" parent="1">
                    <mxGeometry x="410" y="569" width="20" height="20" as="geometry"/>
                </mxCell>
                <mxCell id="74" value="" style="ellipse;whiteSpace=wrap;html=1;fillColor=#006600;strokeColor=none;" vertex="1" parent="1">
                    <mxGeometry x="290" y="609" width="20" height="20" as="geometry"/>
                </mxCell>
                <mxCell id="75" value="" style="ellipse;whiteSpace=wrap;html=1;fillColor=#006600;strokeColor=none;" vertex="1" parent="1">
                    <mxGeometry x="330" y="649" width="20" height="20" as="geometry"/>
                </mxCell>
                <mxCell id="76" value="" style="ellipse;whiteSpace=wrap;html=1;fillColor=#006600;strokeColor=none;" vertex="1" parent="1">
                    <mxGeometry x="370" y="689" width="20" height="20" as="geometry"/>
                </mxCell>
                <mxCell id="77" value="" style="ellipse;whiteSpace=wrap;html=1;fillColor=#006600;strokeColor=none;" vertex="1" parent="1">
                    <mxGeometry x="410" y="729" width="20" height="20" as="geometry"/>
                </mxCell>
                <mxCell id="78" value="" style="ellipse;whiteSpace=wrap;html=1;fillColor=#006600;strokeColor=none;" vertex="1" parent="1">
                    <mxGeometry x="290" y="769" width="20" height="20" as="geometry"/>
                </mxCell>
                <mxCell id="79" value="" style="ellipse;whiteSpace=wrap;html=1;fillColor=#006600;strokeColor=none;" vertex="1" parent="1">
                    <mxGeometry x="330" y="809" width="20" height="20" as="geometry"/>
                </mxCell>
                <mxCell id="80" value="" style="ellipse;whiteSpace=wrap;html=1;fillColor=#006600;strokeColor=none;" vertex="1" parent="1">
                    <mxGeometry x="370" y="849" width="20" height="20" as="geometry"/>
                </mxCell>
                <mxCell id="81" value="" style="ellipse;whiteSpace=wrap;html=1;fillColor=#006600;strokeColor=none;" vertex="1" parent="1">
                    <mxGeometry x="410" y="889" width="20" height="20" as="geometry"/>
                </mxCell>
                <mxCell id="82" value="" style="ellipse;whiteSpace=wrap;html=1;fillColor=#006600;strokeColor=none;" vertex="1" parent="1">
                    <mxGeometry x="450" y="289" width="20" height="20" as="geometry"/>
                </mxCell>
                <mxCell id="83" value="" style="ellipse;whiteSpace=wrap;html=1;fillColor=#006600;strokeColor=none;" vertex="1" parent="1">
                    <mxGeometry x="490" y="329" width="20" height="20" as="geometry"/>
                </mxCell>
                <mxCell id="84" value="" style="ellipse;whiteSpace=wrap;html=1;fillColor=#006600;strokeColor=none;" vertex="1" parent="1">
                    <mxGeometry x="530" y="369" width="20" height="20" as="geometry"/>
                </mxCell>
                <mxCell id="85" value="" style="ellipse;whiteSpace=wrap;html=1;fillColor=#006600;strokeColor=none;" vertex="1" parent="1">
                    <mxGeometry x="570" y="409" width="20" height="20" as="geometry"/>
                </mxCell>
                <mxCell id="86" value="" style="ellipse;whiteSpace=wrap;html=1;fillColor=#006600;strokeColor=none;" vertex="1" parent="1">
                    <mxGeometry x="610" y="289" width="20" height="20" as="geometry"/>
                </mxCell>
                <mxCell id="87" value="" style="ellipse;whiteSpace=wrap;html=1;fillColor=#006600;strokeColor=none;" vertex="1" parent="1">
                    <mxGeometry x="650" y="329" width="20" height="20" as="geometry"/>
                </mxCell>
                <mxCell id="88" value="" style="ellipse;whiteSpace=wrap;html=1;fillColor=#006600;strokeColor=none;" vertex="1" parent="1">
                    <mxGeometry x="690" y="369" width="20" height="20" as="geometry"/>
                </mxCell>
                <mxCell id="89" value="" style="ellipse;whiteSpace=wrap;html=1;fillColor=#006600;strokeColor=none;" vertex="1" parent="1">
                    <mxGeometry x="730" y="409" width="20" height="20" as="geometry"/>
                </mxCell>
                <mxCell id="95" value="" style="ellipse;whiteSpace=wrap;html=1;fillColor=#FFB366;strokeColor=none;" vertex="1" parent="1">
                    <mxGeometry x="490" y="449" width="20" height="20" as="geometry"/>
                </mxCell>
                <mxCell id="96" value="" style="ellipse;whiteSpace=wrap;html=1;fillColor=#006600;strokeColor=none;" vertex="1" parent="1">
                    <mxGeometry x="770" y="289" width="20" height="20" as="geometry"/>
                </mxCell>
                <mxCell id="97" value="" style="ellipse;whiteSpace=wrap;html=1;fillColor=#006600;strokeColor=none;" vertex="1" parent="1">
                    <mxGeometry x="810" y="329" width="20" height="20" as="geometry"/>
                </mxCell>
                <mxCell id="98" value="" style="ellipse;whiteSpace=wrap;html=1;fillColor=#006600;strokeColor=none;" vertex="1" parent="1">
                    <mxGeometry x="850" y="369" width="20" height="20" as="geometry"/>
                </mxCell>
                <mxCell id="99" value="" style="ellipse;whiteSpace=wrap;html=1;fillColor=#006600;strokeColor=none;" vertex="1" parent="1">
                    <mxGeometry x="890" y="409" width="20" height="20" as="geometry"/>
                </mxCell>
                <mxCell id="100" value="1" style="text;html=1;strokeColor=none;fillColor=none;align=center;verticalAlign=middle;whiteSpace=wrap;rounded=0;fontSize=20;" vertex="1" parent="1">
                    <mxGeometry x="80" y="10" width="40" height="30" as="geometry"/>
                </mxCell>
                <mxCell id="102" value="6" style="text;html=1;strokeColor=none;fillColor=none;align=center;verticalAlign=middle;whiteSpace=wrap;rounded=0;fontSize=20;" vertex="1" parent="1">
                    <mxGeometry x="280" y="10" width="40" height="30" as="geometry"/>
                </mxCell>
                <mxCell id="103" value="10" style="text;html=1;strokeColor=none;fillColor=none;align=center;verticalAlign=middle;whiteSpace=wrap;rounded=0;fontSize=20;" vertex="1" parent="1">
                    <mxGeometry x="440" y="10" width="40" height="30" as="geometry"/>
                </mxCell>
                <mxCell id="104" value="14" style="text;html=1;strokeColor=none;fillColor=none;align=center;verticalAlign=middle;whiteSpace=wrap;rounded=0;fontSize=20;" vertex="1" parent="1">
                    <mxGeometry x="600" y="10" width="40" height="30" as="geometry"/>
                </mxCell>
                <mxCell id="105" value="18" style="text;html=1;strokeColor=none;fillColor=none;align=center;verticalAlign=middle;whiteSpace=wrap;rounded=0;fontSize=20;" vertex="1" parent="1">
                    <mxGeometry x="760" y="10" width="40" height="30" as="geometry"/>
                </mxCell>
                <mxCell id="106" value="21" style="text;html=1;strokeColor=none;fillColor=none;align=center;verticalAlign=middle;whiteSpace=wrap;rounded=0;fontSize=20;" vertex="1" parent="1">
                    <mxGeometry x="880" y="10" width="40" height="30" as="geometry"/>
                </mxCell>
                <mxCell id="107" value="6" style="text;html=1;strokeColor=none;fillColor=none;align=center;verticalAlign=middle;whiteSpace=wrap;rounded=0;fontSize=20;" vertex="1" parent="1">
                    <mxGeometry y="290" width="40" height="30" as="geometry"/>
                </mxCell>
                <mxCell id="108" value="1" style="text;html=1;strokeColor=none;fillColor=none;align=center;verticalAlign=middle;whiteSpace=wrap;rounded=0;fontSize=20;" vertex="1" parent="1">
                    <mxGeometry y="90" width="40" height="30" as="geometry"/>
                </mxCell>
                <mxCell id="110" value="10" style="text;html=1;strokeColor=none;fillColor=none;align=center;verticalAlign=middle;whiteSpace=wrap;rounded=0;fontSize=20;" vertex="1" parent="1">
                    <mxGeometry y="440" width="40" height="30" as="geometry"/>
                </mxCell>
                <mxCell id="111" value="14" style="text;html=1;strokeColor=none;fillColor=none;align=center;verticalAlign=middle;whiteSpace=wrap;rounded=0;fontSize=20;" vertex="1" parent="1">
                    <mxGeometry y="610" width="40" height="30" as="geometry"/>
                </mxCell>
                <mxCell id="112" value="18" style="text;html=1;strokeColor=none;fillColor=none;align=center;verticalAlign=middle;whiteSpace=wrap;rounded=0;fontSize=20;" vertex="1" parent="1">
                    <mxGeometry y="770" width="40" height="30" as="geometry"/>
                </mxCell>
                <mxCell id="113" value="21" style="text;html=1;strokeColor=none;fillColor=none;align=center;verticalAlign=middle;whiteSpace=wrap;rounded=0;fontSize=20;" vertex="1" parent="1">
                    <mxGeometry y="890" width="40" height="30" as="geometry"/>
                </mxCell>
                <mxCell id="114" value="" style="ellipse;whiteSpace=wrap;html=1;fillColor=#FF3333;strokeColor=none;" vertex="1" parent="1">
                    <mxGeometry x="690" y="449" width="20" height="20" as="geometry"/>
                </mxCell>
                <mxCell id="115" value="" style="ellipse;whiteSpace=wrap;html=1;fillColor=#1A1A1A;strokeColor=none;" vertex="1" parent="1">
                    <mxGeometry x="890" y="449" width="20" height="20" as="geometry"/>
                </mxCell>
                <mxCell id="116" value="" style="ellipse;whiteSpace=wrap;html=1;fillColor=#FFB366;strokeColor=none;" vertex="1" parent="1">
                    <mxGeometry x="450" y="489" width="20" height="20" as="geometry"/>
                </mxCell>
                <mxCell id="117" value="" style="ellipse;whiteSpace=wrap;html=1;fillColor=#FF3333;strokeColor=none;" vertex="1" parent="1">
                    <mxGeometry x="730" y="489" width="20" height="20" as="geometry"/>
                </mxCell>
                <mxCell id="118" value="" style="ellipse;whiteSpace=wrap;html=1;fillColor=#1A1A1A;strokeColor=none;" vertex="1" parent="1">
                    <mxGeometry x="850" y="489" width="20" height="20" as="geometry"/>
                </mxCell>
                <mxCell id="119" value="" style="ellipse;whiteSpace=wrap;html=1;fillColor=#1A1A1A;strokeColor=none;" vertex="1" parent="1">
                    <mxGeometry x="810" y="529" width="20" height="20" as="geometry"/>
                </mxCell>
                <mxCell id="120" value="" style="ellipse;whiteSpace=wrap;html=1;fillColor=#1A1A1A;strokeColor=none;" vertex="1" parent="1">
                    <mxGeometry x="770" y="569" width="20" height="20" as="geometry"/>
                </mxCell>
                <mxCell id="121" value="" style="ellipse;whiteSpace=wrap;html=1;fillColor=#1A1A1A;strokeColor=none;" vertex="1" parent="1">
                    <mxGeometry x="730" y="609" width="20" height="20" as="geometry"/>
                </mxCell>
                <mxCell id="122" value="" style="ellipse;whiteSpace=wrap;html=1;fillColor=#1A1A1A;strokeColor=none;" vertex="1" parent="1">
                    <mxGeometry x="690" y="649" width="20" height="20" as="geometry"/>
                </mxCell>
                <mxCell id="123" value="" style="ellipse;whiteSpace=wrap;html=1;fillColor=#1A1A1A;strokeColor=none;" vertex="1" parent="1">
                    <mxGeometry x="650" y="689" width="20" height="20" as="geometry"/>
                </mxCell>
                <mxCell id="124" value="" style="ellipse;whiteSpace=wrap;html=1;fillColor=#1A1A1A;strokeColor=none;" vertex="1" parent="1">
                    <mxGeometry x="610" y="729" width="20" height="20" as="geometry"/>
                </mxCell>
                <mxCell id="125" value="" style="ellipse;whiteSpace=wrap;html=1;fillColor=#1A1A1A;strokeColor=none;" vertex="1" parent="1">
                    <mxGeometry x="570" y="769" width="20" height="20" as="geometry"/>
                </mxCell>
                <mxCell id="126" value="" style="ellipse;whiteSpace=wrap;html=1;fillColor=#1A1A1A;strokeColor=none;" vertex="1" parent="1">
                    <mxGeometry x="530" y="809" width="20" height="20" as="geometry"/>
                </mxCell>
                <mxCell id="127" value="" style="ellipse;whiteSpace=wrap;html=1;fillColor=#1A1A1A;strokeColor=none;" vertex="1" parent="1">
                    <mxGeometry x="490" y="849" width="20" height="20" as="geometry"/>
                </mxCell>
                <mxCell id="128" value="" style="ellipse;whiteSpace=wrap;html=1;fillColor=#1A1A1A;strokeColor=none;" vertex="1" parent="1">
                    <mxGeometry x="450" y="889" width="20" height="20" as="geometry"/>
                </mxCell>
                <mxCell id="129" value="" style="ellipse;whiteSpace=wrap;html=1;fillColor=#FFB366;strokeColor=none;" vertex="1" parent="1">
                    <mxGeometry x="570" y="529" width="20" height="20" as="geometry"/>
                </mxCell>
                <mxCell id="130" value="" style="ellipse;whiteSpace=wrap;html=1;fillColor=#FF3333;strokeColor=none;" vertex="1" parent="1">
                    <mxGeometry x="610" y="529" width="20" height="20" as="geometry"/>
                </mxCell>
                <mxCell id="131" value="" style="ellipse;whiteSpace=wrap;html=1;fillColor=#FFB366;strokeColor=none;" vertex="1" parent="1">
                    <mxGeometry x="530" y="569" width="20" height="20" as="geometry"/>
                </mxCell>
                <mxCell id="132" value="" style="ellipse;whiteSpace=wrap;html=1;fillColor=#FF3333;strokeColor=none;" vertex="1" parent="1">
                    <mxGeometry x="570" y="649" width="20" height="20" as="geometry"/>
                </mxCell>
                <mxCell id="133" value="" style="ellipse;whiteSpace=wrap;html=1;fillColor=#FF3333;strokeColor=none;" vertex="1" parent="1">
                    <mxGeometry x="650" y="569" width="20" height="20" as="geometry"/>
                </mxCell>
                <mxCell id="134" value="" style="ellipse;whiteSpace=wrap;html=1;fillColor=#FF3333;strokeColor=none;" vertex="1" parent="1">
                    <mxGeometry x="530" y="609" width="20" height="20" as="geometry"/>
                </mxCell>
                <mxCell id="135" value="" style="ellipse;whiteSpace=wrap;html=1;fillColor=#FF3333;strokeColor=none;" vertex="1" parent="1">
                    <mxGeometry x="450" y="689" width="20" height="20" as="geometry"/>
                </mxCell>
                <mxCell id="136" value="" style="ellipse;whiteSpace=wrap;html=1;fillColor=#FF3333;strokeColor=none;" vertex="1" parent="1">
                    <mxGeometry x="490" y="729" width="20" height="20" as="geometry"/>
                </mxCell>
                <mxCell id="137" value="" style="ellipse;whiteSpace=wrap;html=1;fillColor=#FFB366;strokeColor=none;" vertex="1" parent="1">
                    <mxGeometry x="810" y="609" width="20" height="20" as="geometry"/>
                </mxCell>
                <mxCell id="138" value="" style="ellipse;whiteSpace=wrap;html=1;fillColor=#FFB366;strokeColor=none;" vertex="1" parent="1">
                    <mxGeometry x="770" y="649" width="20" height="20" as="geometry"/>
                </mxCell>
                <mxCell id="139" value="" style="ellipse;whiteSpace=wrap;html=1;fillColor=#FFB366;strokeColor=none;" vertex="1" parent="1">
                    <mxGeometry x="890" y="689" width="20" height="20" as="geometry"/>
                </mxCell>
                <mxCell id="140" value="" style="ellipse;whiteSpace=wrap;html=1;fillColor=#FFB366;strokeColor=none;" vertex="1" parent="1">
                    <mxGeometry x="850" y="729" width="20" height="20" as="geometry"/>
                </mxCell>
                <mxCell id="141" value="" style="ellipse;whiteSpace=wrap;html=1;fillColor=#FFB366;strokeColor=none;" vertex="1" parent="1">
                    <mxGeometry x="650" y="769" width="20" height="20" as="geometry"/>
                </mxCell>
                <mxCell id="142" value="" style="ellipse;whiteSpace=wrap;html=1;fillColor=#FFB366;strokeColor=none;" vertex="1" parent="1">
                    <mxGeometry x="610" y="809" width="20" height="20" as="geometry"/>
                </mxCell>
                <mxCell id="143" value="" style="ellipse;whiteSpace=wrap;html=1;fillColor=#FFB366;strokeColor=none;" vertex="1" parent="1">
                    <mxGeometry x="730" y="849" width="20" height="20" as="geometry"/>
                </mxCell>
                <mxCell id="144" value="" style="ellipse;whiteSpace=wrap;html=1;fillColor=#FFB366;strokeColor=none;" vertex="1" parent="1">
                    <mxGeometry x="690" y="889" width="20" height="20" as="geometry"/>
                </mxCell>
                <mxCell id="145" value="" style="ellipse;whiteSpace=wrap;html=1;fillColor=#FF3333;strokeColor=none;" vertex="1" parent="1">
                    <mxGeometry x="850" y="769" width="20" height="20" as="geometry"/>
                </mxCell>
                <mxCell id="146" value="" style="ellipse;whiteSpace=wrap;html=1;fillColor=#FF3333;strokeColor=none;" vertex="1" parent="1">
                    <mxGeometry x="890" y="809" width="20" height="20" as="geometry"/>
                </mxCell>
                <mxCell id="147" value="" style="ellipse;whiteSpace=wrap;html=1;fillColor=#FF3333;strokeColor=none;" vertex="1" parent="1">
                    <mxGeometry x="770" y="849" width="20" height="20" as="geometry"/>
                </mxCell>
                <mxCell id="148" value="" style="ellipse;whiteSpace=wrap;html=1;fillColor=#FF3333;strokeColor=none;" vertex="1" parent="1">
                    <mxGeometry x="810" y="889" width="20" height="20" as="geometry"/>
                </mxCell>
            </root>
        </mxGraphModel>
    </diagram>
</mxfile>